<?xml version="1.0" standalone="no"?>
<!DOCTYPE svg PUBLIC "-//W3C//DTD SVG 20010904//EN"
 "http://www.w3.org/TR/2001/REC-SVG-20010904/DTD/svg10.dtd">
<svg version="1.0" xmlns="http://www.w3.org/2000/svg"
 width="512.000000pt" height="512.000000pt" viewBox="0 0 512.000000 512.000000"
 preserveAspectRatio="xMidYMid meet">
<metadata>
Created by potrace 1.11, written by Peter Selinger 2001-2013
</metadata>
<g transform="translate(0.000000,512.000000) scale(0.100000,-0.100000)"
fill="#000000" stroke="none">
<path d="M2365 5114 c-16 -2 -73 -9 -125 -15 -546 -62 -1088 -327 -1490 -729
-402 -402 -650 -909 -732 -1490 -17 -125 -17 -515 0 -640 81 -579 328 -1084
727 -1485 401 -403 913 -655 1495 -737 125 -17 515 -17 640 0 582 82 1088 331
1493 736 398 398 648 907 729 1486 17 125 17 515 0 640 -57 407 -197 780 -412
1101 -410 609 -1039 1005 -1772 1115 -97 14 -487 27 -553 18z m610 -1099 c28
-13 59 -32 71 -42 41 -36 92 -113 109 -162 l17 -51 102 0 c125 0 194 -12 263
-46 107 -52 217 -182 267 -316 14 -36 61 -204 106 -374 45 -170 83 -316 86
-325 2 -9 23 -25 47 -35 65 -29 188 -157 225 -234 44 -90 52 -145 52 -350 0
-205 -8 -261 -52 -350 -37 -77 -148 -192 -224 -232 -113 -61 -46 -58 -1484
-58 -1438 0 -1371 -3 -1484 58 -123 65 -242 223 -266 351 -13 70 -13 392 0
462 23 123 123 263 239 334 l57 36 89 312 c48 172 100 347 116 390 52 145 160
277 272 331 69 34 138 46 263 46 99 0 104 1 104 21 0 58 97 191 165 226 56 30
80 31 445 32 l365 1 50 -25z"/>
<path d="M1676 3409 c-22 -18 -43 -52 -56 -87 -22 -59 -170 -574 -170 -592 0
-7 374 -10 1105 -10 744 0 1105 3 1105 10 0 21 -140 540 -160 594 -13 33 -35
67 -56 85 l-35 31 -849 0 -849 0 -35 -31z"/>
<path d="M1276 2226 c-107 -40 -165 -136 -153 -252 9 -86 49 -149 122 -187 31
-17 58 -22 115 -22 151 0 235 84 235 235 0 78 -15 120 -59 168 -54 60 -180 88
-260 58z"/>
<path d="M3676 2226 c-107 -40 -165 -136 -153 -252 9 -86 49 -149 122 -187 31
-17 58 -22 115 -22 151 0 235 84 235 235 0 78 -15 120 -59 168 -54 60 -180 88
-260 58z"/>
</g>
</svg>
