<?xml version="1.0" standalone="no"?>
<!DOCTYPE svg PUBLIC "-//W3C//DTD SVG 20010904//EN"
 "http://www.w3.org/TR/2001/REC-SVG-20010904/DTD/svg10.dtd">
<svg version="1.0" xmlns="http://www.w3.org/2000/svg"
 width="512.000000pt" height="512.000000pt" viewBox="0 0 512.000000 512.000000"
 preserveAspectRatio="xMidYMid meet">
<metadata>
Created by potrace 1.11, written by Peter Selinger 2001-2013
</metadata>
<g transform="translate(0.000000,512.000000) scale(0.100000,-0.100000)"
fill="#000000" stroke="none">
<path d="M2323 5110 c-316 -31 -597 -112 -888 -255 -278 -137 -479 -280 -692
-496 -211 -214 -343 -400 -479 -674 -124 -251 -196 -483 -241 -775 -24 -161
-24 -539 0 -700 70 -449 234 -845 496 -1195 96 -127 306 -343 436 -448 349
-282 774 -468 1230 -539 201 -31 549 -31 750 0 434 68 823 232 1173 494 119
89 339 302 437 423 287 353 475 780 547 1240 31 201 31 549 0 750 -71 456
-257 881 -539 1230 -105 130 -321 340 -448 436 -346 259 -749 428 -1185 494
-125 19 -468 27 -597 15z m628 -1082 c89 -30 171 -119 205 -220 l16 -48 112 0
c187 0 270 -31 381 -144 110 -111 137 -175 245 -586 50 -190 92 -345 93 -346
1 0 26 -14 56 -30 112 -60 212 -189 246 -319 21 -83 21 -427 0 -510 -38 -145
-141 -267 -284 -338 l-84 -42 -1377 0 -1377 0 -84 42 c-143 71 -246 193 -284
338 -18 72 -21 415 -4 497 25 121 132 265 244 329 l49 28 101 355 c111 391
142 466 230 563 110 122 184 154 374 162 l134 6 13 44 c26 90 117 189 199 219
43 15 751 16 796 0z"/>
<path d="M1700 3427 c-54 -27 -77 -82 -165 -391 -47 -164 -85 -302 -85 -307 0
-5 478 -9 1105 -9 608 0 1105 3 1105 8 0 26 -153 578 -170 614 -11 25 -32 56
-46 69 l-26 24 -846 2 c-663 2 -852 0 -872 -10z"/>
<path d="M1300 2229 c-107 -21 -173 -108 -173 -229 0 -124 66 -208 181 -230
139 -26 257 48 282 178 34 182 -105 318 -290 281z"/>
<path d="M3700 2229 c-107 -21 -173 -108 -173 -229 0 -124 66 -208 181 -230
139 -26 257 48 282 178 34 182 -105 318 -290 281z"/>
</g>
</svg>
